<svg width="427" height="117" viewBox="0 0 427 117" fill="none" xmlns="http://www.w3.org/2000/svg">
<path fill-rule="evenodd" clip-rule="evenodd" d="M48.832 18.3906V96.0692C61.773 90.8055 70.8937 78.1413 70.8937 63.3516V18.3906H48.832Z" fill="#E21B38"/>
<path fill-rule="evenodd" clip-rule="evenodd" d="M27.0523 18.3906H0V59.3523L27.0523 18.3906Z" fill="#E21B38"/>
<path fill-rule="evenodd" clip-rule="evenodd" d="M7.71484 85.3483C12.7207 91.6086 19.814 96.1348 27.9462 97.8812V54.875L7.71484 85.3483Z" fill="#E21B38"/>
<path fill-rule="evenodd" clip-rule="evenodd" d="M91.1953 76.7745V66.6504H94.221V76.6489C94.221 79.915 95.8693 81.6484 98.5753 81.6484C101.257 81.6484 102.905 80.0153 102.905 76.7745V66.6504H105.931V76.6236C105.931 81.8743 103.028 84.5124 98.5261 84.5124C94.0489 84.5124 91.1953 81.8743 91.1953 76.7745Z" fill="black"/>
<path fill-rule="evenodd" clip-rule="evenodd" d="M109.742 70.9718H112.719V73.0065C113.555 71.7758 114.76 70.6953 116.778 70.6953C119.705 70.6953 121.402 72.7051 121.402 75.7702V84.2367H118.426V76.6999C118.426 74.6395 117.417 73.459 115.646 73.459C113.924 73.459 112.719 74.69 112.719 76.75V84.2367H109.742V70.9718Z" fill="black"/>
<path fill-rule="evenodd" clip-rule="evenodd" d="M125.166 84.236H128.142V70.9709H125.166V84.236ZM125.043 68.9362H128.241V66.0469H125.043V68.9362Z" fill="black"/>
<path fill-rule="evenodd" clip-rule="evenodd" d="M130.801 70.9727H133.999L137.492 80.7204L141.01 70.9727H144.134L138.821 84.338H136.139L130.801 70.9727Z" fill="black"/>
<path fill-rule="evenodd" clip-rule="evenodd" d="M155.571 76.6746C155.375 74.7149 154.243 73.1826 152.275 73.1826C150.455 73.1826 149.175 74.6142 148.905 76.6746H155.571ZM145.953 77.6544V77.6039C145.953 73.8105 148.585 70.6953 152.299 70.6953C156.432 70.6953 158.523 74.0116 158.523 77.8302C158.523 78.1063 158.499 78.3827 158.474 78.6844H148.93C149.249 80.8451 150.75 82.0508 152.669 82.0508C154.12 82.0508 155.153 81.4983 156.186 80.4679L157.933 82.0508C156.703 83.5583 155.005 84.5377 152.619 84.5377C148.856 84.5377 145.953 81.7491 145.953 77.6544Z" fill="black"/>
<path fill-rule="evenodd" clip-rule="evenodd" d="M161.523 70.9713H164.5V73.9609C165.311 71.976 166.812 70.6194 169.1 70.7201V73.9356H168.928C166.32 73.9356 164.5 75.6694 164.5 79.1863V84.2363H161.523V70.9713Z" fill="black"/>
<path fill-rule="evenodd" clip-rule="evenodd" d="M170.629 82.5037L171.957 80.4437C173.384 81.5238 174.884 82.0767 176.213 82.0767C177.492 82.0767 178.23 81.5238 178.23 80.6447V80.5946C178.23 79.5642 176.852 79.2123 175.327 78.7352C173.408 78.1827 171.268 77.3786 171.268 74.8412V74.791C171.268 72.2788 173.31 70.7461 175.893 70.7461C177.517 70.7461 179.288 71.3243 180.665 72.2536L179.484 74.4142C178.23 73.6354 176.901 73.158 175.819 73.158C174.663 73.158 173.999 73.7105 173.999 74.4644V74.5146C173.999 75.4944 175.401 75.8964 176.926 76.3992C178.82 77.0018 180.961 77.8814 180.961 80.2676V80.3181C180.961 83.1067 178.845 84.4886 176.139 84.4886C174.294 84.4886 172.253 83.8101 170.629 82.5037Z" fill="black"/>
<path fill-rule="evenodd" clip-rule="evenodd" d="M184.182 84.236H187.158V70.9709H184.182V84.236ZM184.059 68.9362H187.256V66.0469H184.059V68.9362Z" fill="black"/>
<path fill-rule="evenodd" clip-rule="evenodd" d="M191.66 80.5678V73.5835H190.012V70.971H191.66V67.3281H194.636V70.971H198.13V73.5835H194.636V80.0904C194.636 81.2712 195.227 81.7483 196.235 81.7483C196.9 81.7483 197.49 81.5975 198.081 81.2961V83.7834C197.342 84.2107 196.531 84.4619 195.399 84.4619C193.21 84.4619 191.66 83.4817 191.66 80.5678Z" fill="black"/>
<path fill-rule="evenodd" clip-rule="evenodd" d="M210.159 70.9727H213.259L208.093 84.6144C207.06 87.3276 205.903 88.3327 203.813 88.3327C202.582 88.3327 201.648 88.0309 200.738 87.5286L201.746 85.2676C202.288 85.5689 202.878 85.7699 203.492 85.7699C204.329 85.7699 204.846 85.3932 205.337 84.2625L199.926 70.9727H203.124L206.789 80.8207L210.159 70.9727Z" fill="black"/>
<path fill-rule="evenodd" clip-rule="evenodd" d="M116.386 58.2834V38.6987L107.914 51.5123H107.742L99.3565 38.8274V58.2834H92.8633V28.2852H100.002L107.914 40.9701L115.827 28.2852H122.965V58.2834H116.386Z" fill="black"/>
<path fill-rule="evenodd" clip-rule="evenodd" d="M143.133 49.0273C142.015 48.5131 140.553 48.17 138.962 48.17C136.166 48.17 134.446 49.2842 134.446 51.3415V51.4273C134.446 53.184 135.908 54.2125 138.015 54.2125C141.069 54.2125 143.133 52.5415 143.133 50.1844V49.0273ZM143.004 58.2838V55.7984C141.412 57.5551 139.219 58.7122 136.037 58.7122C131.694 58.7122 128.125 56.2269 128.125 51.6842V51.5984C128.125 46.5844 131.952 44.2702 137.413 44.2702C139.735 44.2702 141.412 44.6558 143.047 45.2133V44.8273C143.047 42.1276 141.369 40.6278 138.101 40.6278C135.607 40.6278 133.844 41.0991 131.737 41.8706L130.103 36.8995C132.64 35.7853 135.135 35.0566 139.047 35.0566C146.186 35.0566 149.325 38.742 149.325 44.956V58.2838H143.004Z" fill="black"/>
<path fill-rule="evenodd" clip-rule="evenodd" d="M169.535 58.284V45.4705C169.535 42.3851 168.072 40.7991 165.578 40.7991C163.084 40.7991 161.493 42.3851 161.493 45.4705V58.284H154.957V27H161.493V38.5707C162.998 36.6424 164.933 34.8853 168.245 34.8853C173.19 34.8853 176.071 38.1422 176.071 43.4135V58.284H169.535Z" fill="black"/>
<path fill-rule="evenodd" clip-rule="evenodd" d="M182.048 58.284H188.584V35.3138H182.048V58.284ZM181.875 32.7855H188.755V27H181.875V32.7855Z" fill="black"/>
<path fill-rule="evenodd" clip-rule="evenodd" d="M209.308 58.2835V45.4699C209.308 42.3845 207.846 40.7986 205.352 40.7986C202.858 40.7986 201.267 42.3845 201.267 45.4699V58.2835H194.73V35.3132H201.267V38.5701C202.772 36.6419 204.707 34.8848 208.018 34.8848C212.963 34.8848 215.845 38.1417 215.845 43.413V58.2835H209.308Z" fill="black"/>
<path fill-rule="evenodd" clip-rule="evenodd" d="M238.248 46.7562C238.248 42.9422 235.711 40.4139 232.658 40.4139C229.605 40.4139 227.025 42.8993 227.025 46.7562V46.842C227.025 50.656 229.605 53.1846 232.658 53.1846C235.711 53.1846 238.248 50.656 238.248 46.842V46.7562ZM238.162 58.284V54.9842C236.571 57.1269 234.378 58.7129 230.981 58.7129C225.606 58.7129 220.488 54.5129 220.488 46.842V46.7562C220.488 39.0853 225.52 34.8857 230.981 34.8857C234.464 34.8857 236.614 36.4713 238.162 38.3138V27H244.699V58.284H238.162Z" fill="black"/>
<path fill-rule="evenodd" clip-rule="evenodd" d="M264.088 41.6986C259.745 41.6986 257.079 44.313 257.079 49.7983V58.2833H250.543V35.3134H257.079V39.9415C258.413 36.7703 260.562 34.7134 264.433 34.885V41.6986H264.088Z" fill="black"/>
<path fill-rule="evenodd" clip-rule="evenodd" d="M282.149 49.0273C281.031 48.5131 279.568 48.17 277.977 48.17C275.182 48.17 273.462 49.2842 273.462 51.3415V51.4273C273.462 53.184 274.924 54.2125 277.031 54.2125C280.084 54.2125 282.149 52.5415 282.149 50.1844V49.0273ZM282.019 58.2838V55.7984C280.428 57.5551 278.235 58.7122 275.053 58.7122C270.71 58.7122 267.141 56.2269 267.141 51.6842V51.5984C267.141 46.5844 270.968 44.2702 276.429 44.2702C278.751 44.2702 280.428 44.6558 282.062 45.2133V44.8273C282.062 42.1276 280.385 40.6278 277.117 40.6278C274.623 40.6278 272.86 41.0991 270.753 41.8706L269.119 36.8995C271.656 35.7853 274.15 35.0566 278.063 35.0566C285.201 35.0566 288.34 38.742 288.34 44.956V58.2838H282.019Z" fill="black"/>
<line x1="316" y1="90.5" x2="316" y2="26.5" stroke="black" stroke-opacity="0.3" stroke-width="2" stroke-linecap="round"/>
<path fill-rule="evenodd" clip-rule="evenodd" d="M366.099 84.8891C366.529 85.4833 367.131 85.8722 367.438 85.7538C367.744 85.6353 368.699 85.8344 369.559 86.196C371.042 86.8196 371.11 86.9317 370.878 88.3692C370.744 89.2028 369.592 92.0395 368.32 94.673C367.047 97.3061 366.006 99.7766 366.006 100.162C366.006 100.548 365.625 101.658 365.158 102.628C364.168 104.685 363.513 108.336 363.798 110.203C364.153 112.527 362.046 112.469 360.197 110.103C359.259 108.903 359.054 106.536 359.732 104.741C360.702 102.172 357.432 102.918 355.683 105.664C353.389 109.265 351.832 112.682 351.553 114.724C351.257 116.898 350.695 117.41 349.381 116.702C346.92 115.376 346.898 115.003 348.985 110.043C349.693 108.364 350.168 106.886 350.042 106.759C349.917 106.633 349.009 106.92 348.026 107.399C347.043 107.877 346.068 108.268 345.86 108.268C345.651 108.268 344.937 108.658 344.272 109.134C343.069 109.996 342.222 109.932 342.222 108.978C342.222 108.517 345.068 107.016 349.756 105.004C351.778 104.136 352.497 103.359 355.28 99.0295C356.245 97.5282 357.281 96.0164 357.582 95.67C359.454 93.5173 363.176 88.3453 363.532 87.4042C364.023 86.1032 363.777 85.1709 362.943 85.1709C361.633 85.1709 358.203 87.0795 356.607 88.6972C352.737 92.619 350.816 97.0117 352.313 98.518C353.162 99.3722 352.289 99.6296 350.864 98.9459C350.115 98.5865 349.138 97.6114 348.692 96.7786L347.883 95.2651L348.974 93.0528C350.348 90.2652 352.571 87.6691 355.354 85.5997C357.906 83.7028 358.597 83.5155 362.428 83.683C364.977 83.7943 365.409 83.9367 366.099 84.8891ZM359.291 100.184C359.771 99.4335 360.489 98.3118 360.887 97.6916C361.284 97.0713 361.686 96.6404 361.779 96.7345C362.176 97.1339 360.817 100.778 360.133 101.146C358.707 101.914 358.406 101.57 359.291 100.184Z" fill="black"/>
<path fill-rule="evenodd" clip-rule="evenodd" d="M398.705 90.6608C399.446 91.2467 399.805 91.9324 399.805 92.7606C399.805 94.2463 400.723 94.4005 401.649 93.0701C402.001 92.5645 402.419 92.2814 402.578 92.441C403.017 92.8832 401.92 94.7826 399.711 97.4064C398.615 98.7083 397.482 100.315 397.194 100.976C396.184 103.293 394.33 105.643 392.901 106.418C391.491 107.182 391.427 107.181 389.967 106.39C388.139 105.4 387.287 103.839 387.287 101.486C387.287 100.097 387.175 99.8131 386.786 100.205C385.338 101.663 382.697 99.9026 382.697 97.4799C382.697 95.5309 382.093 95.7489 381.022 98.0842C380.518 99.1815 379.75 100.835 379.315 101.759C378.879 102.683 378.086 104.572 377.553 105.958L376.582 108.478L374.676 108.343C373.621 108.268 372.646 108.409 372.493 108.658C372.34 108.905 371.556 109.108 370.748 109.108C368.968 109.108 366.841 107.207 366.841 105.616C366.841 104.249 368.761 96.6707 369.547 94.9346C370.191 93.5148 370.923 93.2666 372.293 94.0044C373.37 94.5848 373.311 95.8463 372.046 99.226C370.949 102.159 370.203 107.01 370.85 107.005C371.448 107.001 372.994 104.403 373.311 102.871C373.471 102.097 374.026 100.491 374.545 99.3016C375.064 98.1124 375.811 96.2419 376.206 95.1446C376.951 93.0743 377.325 92.8714 379.123 93.5593C379.832 93.8306 380.198 94.2917 380.206 94.9241C380.218 95.7833 380.262 95.8048 380.65 95.1345C381.606 93.4804 384.371 91.0505 385.288 91.0564C387.327 91.0703 387.782 92.1336 387.139 95.3798L386.822 96.9798L387.913 96.2604C388.513 95.8648 389.39 94.7671 389.861 93.8205C391.142 91.253 392.254 90.1842 393.356 90.4626C393.87 90.5924 394.415 90.4941 394.568 90.2442C395.035 89.4837 397.537 89.7357 398.705 90.6608ZM394.835 98.8422C394.277 98.4953 395.014 95.8068 396.105 94.2039C396.638 93.4211 397.131 92.8387 397.202 92.9092C397.272 92.9798 397.207 93.805 397.058 94.7427C396.751 96.6745 395.388 99.1866 394.835 98.8422ZM391.416 104.908C390.918 104.908 390.947 103.382 391.482 101.444C391.72 100.578 391.992 99.869 392.085 99.869C392.756 99.869 394.38 100.947 394.38 101.392C394.38 102.037 391.96 104.908 391.416 104.908Z" fill="black"/>
<path d="M375.144 87.4806C376.485 88.8013 373.724 92.2793 371.818 91.6704C371.008 91.4117 370.94 91.179 371.172 89.4732C371.315 88.4238 371.652 87.2979 371.922 86.9712C372.481 86.2934 374.217 86.568 375.144 87.4806Z" fill="black"/>
<path fill-rule="evenodd" clip-rule="evenodd" d="M413.507 2.13421C416.801 4.68748 419.173 7.62962 421.326 11.8303L423.244 15.575L423.104 22.0035L422.963 28.432L420.549 33.1867C418.111 37.9883 415.232 41.6591 411.744 44.4148C409.466 46.2142 411.073 46.1529 413.816 44.3354C416.794 42.3625 417.942 41.2534 420.545 37.8334C421.823 36.1523 422.999 34.7774 423.157 34.7774C424.74 34.7774 426.907 41.1745 426.998 46.116C427.112 52.3198 422.525 57.0669 412.638 60.9778C409.379 62.2675 407.026 62.9083 405.542 62.9113C404.911 62.9125 404.395 63.1179 404.395 63.3669C404.395 63.6344 404.866 63.7314 405.542 63.6033C406.173 63.4836 407.816 63.2669 409.193 63.1216C412.722 62.7492 414.432 62.2435 417.99 60.5197C419.702 59.6903 421.217 59.1267 421.356 59.267C421.773 59.6861 420.706 63.3081 419.306 66.2297C416.415 72.2613 412.995 73.9978 401.995 75.0191C398.036 75.3866 394.798 75.8594 394.798 76.0702C394.798 76.2903 397.328 76.3869 400.744 76.2974L406.69 76.1421L406.795 77.1919C406.916 78.3959 404.169 81.5993 402.452 82.2565C401.196 82.7369 390.685 82.7482 388.237 82.2716C387.268 82.0826 386.564 82.0734 386.673 82.2506C387.1 82.9464 390.9 83.9111 393.216 83.9111C395.794 83.9111 396.65 84.5657 395.654 85.7743C395.071 86.4811 388.332 88.1105 385.99 88.1105C383.092 88.1105 382.447 87.6998 373.996 80.4805C371.428 78.2876 369.395 77.6119 365.361 77.6119C361.789 77.6119 361.409 77.6942 360.252 78.7163C359.563 79.324 357.637 80.355 355.97 81.0075C352.461 82.382 350.665 83.9619 348.613 87.4806C345.966 92.0202 344.594 93.9897 344.079 93.9897C343.285 93.9897 342.204 86.857 342.103 80.958L342.014 75.6952L343.621 72.2403C345.163 68.9245 345.215 68.6674 344.933 65.8374C344.663 63.133 344.522 62.8 343.226 61.8047C342.049 60.9018 341.858 60.5348 342.082 59.6122C342.23 59.0028 342.48 58.4099 342.638 58.2944C342.796 58.1789 342.875 57.423 342.812 56.6146C342.726 55.4753 342.951 54.9079 343.817 54.0924C344.432 53.5137 345.404 52.4743 345.978 51.7827C347.351 50.1273 349.047 49.0556 350.294 49.0556C350.848 49.0556 352.36 49.5431 353.653 50.1395C356.133 51.2817 357.244 52.7015 357.244 54.7282C357.244 56.6184 356.334 59.5597 355.584 60.0926C354.669 60.7431 353.488 63.0305 353.488 64.1526C353.488 65.6375 354.997 65.1403 356.908 63.0255C359.661 59.9784 364.195 55.4992 368.285 51.7852C370.32 49.9375 372.29 48.1422 372.664 47.7957C373.037 47.4493 374.18 46.4729 375.203 45.6263C376.226 44.7797 377.646 43.5513 378.358 42.8966C379.071 42.242 381.03 40.4782 382.712 38.9769C392.4 30.3319 399.295 22.1072 404.324 13.1939C406.018 10.1917 408.567 3.4205 408.567 1.9234C408.567 1.13054 408.703 0.34566 408.868 0.179362C409.424 -0.380006 411.265 0.395633 413.507 2.13421ZM356.409 68.5373C356.409 67.794 359.815 64.1077 369.943 53.8904C377.386 46.3809 383.79 40.2367 384.174 40.2367C384.892 40.2367 384.526 40.7675 382.039 43.3326C381.563 43.8243 380.171 45.36 378.946 46.7459C375.5 50.6434 370.598 55.8658 364.557 62.0739C361.522 65.192 358.812 68.1791 358.532 68.712C358.104 69.5271 358.16 69.9126 358.886 71.1506C359.36 71.959 359.747 72.9971 359.747 73.4573C359.747 74.6261 358.66 76.6187 357.851 76.9311C356.775 77.3469 353.732 77.2339 352.28 76.7241C351.151 76.3281 350.813 76.376 350.069 77.0391C349.195 77.8181 349.192 77.816 349.489 76.562C350.018 74.3334 350.655 74.0113 352.859 74.8587C354.467 75.4764 354.983 75.513 356.018 75.0817C357.569 74.435 357.909 73.1441 357.066 71.1111C356.705 70.2418 356.409 69.0832 356.409 68.5373Z" fill="black"/>
</svg>